<svg width="48" height="51" viewBox="0 0 48 51" fill="none" xmlns="http://www.w3.org/2000/svg">
<path d="M7.27148 35.8223L7.22754 0.830078H29.5752C38.9018 0.830131 46.4628 8.39118 46.4629 17.7178C46.4629 27.2583 38.7281 34.9922 29.1875 34.9922H26.5352C20.9442 34.9922 15.6572 37.5382 12.1709 41.9092L7.27148 48.0518V35.8223Z" stroke="white" stroke-width="1.66088"/>
<path d="M6.44141 3H29.1175C37.353 3 44.0291 9.67613 44.0291 17.9116C44.0291 26.147 37.353 32.8231 29.1175 32.8231H25.2353H22.0226C19.1433 32.8231 16.36 33.8589 14.1813 35.7414L12.8963 36.8515C12.336 37.3357 11.8957 37.9434 11.6102 38.6268C10.478 41.3369 6.44141 40.5276 6.44141 37.5905V32.8231V3Z" fill="white"/>
<path fill-rule="evenodd" clip-rule="evenodd" d="M20.9449 8.61473C21.0073 8.83959 21.1052 9.19886 21.1625 9.41336L21.2669 9.80333L16.1244 9.74866C13.1275 9.71687 10.4586 9.60117 9.72821 9.47131C7.85613 9.13874 5.68728 9.33417 3.59122 10.0242C1.03376 10.8661 0.847174 11.1138 0.261627 14.4429C-0.395253 18.1777 0.25182 23.7865 1.45631 24.8009C1.73456 25.035 2.83886 25.4785 3.96004 25.8064C5.83666 26.3553 6.09277 26.3865 7.92946 26.2915C9.00925 26.2356 12.4875 26.1424 15.659 26.0845L21.4255 25.9789L21.1151 26.6299C20.9189 27.0419 20.8685 27.3446 20.9776 27.4538C21.2391 27.7155 21.9976 27.2645 22.4164 26.5981C22.7645 26.0443 22.8295 26.0202 23.9596 26.0227C24.6085 26.0244 25.7919 26.0939 26.5896 26.1777C29.0848 26.439 31.669 25.8307 32.9891 24.6708C34.2727 23.5429 35.0247 21.0353 35.0289 17.8683C35.0321 15.4305 34.7005 13.8085 33.8896 12.297C33.2534 11.1111 32.6509 10.6194 31.0669 9.99331C29.9617 9.55631 28.0559 9.46259 24.5433 9.67237L22.8584 9.773L22.4852 9.16889C22.0895 8.52827 21.6383 8.20605 21.1369 8.20605C20.9077 8.20605 20.8598 8.30795 20.9449 8.61473ZM11.7985 11.1423C10.9499 11.2193 9.72476 11.3933 9.07586 11.5288L7.89606 11.7751L8.98511 12.1001C9.58409 12.2788 10.7316 12.467 11.5349 12.5184L12.9957 12.6119L13.2896 11.8634C13.4511 11.4516 13.5288 11.0895 13.4624 11.0586C13.3958 11.0275 12.647 11.0653 11.7985 11.1423ZM14.5409 11.3392C14.4569 11.5641 14.3275 11.9424 14.2534 12.1802L14.1187 12.6125L16.1803 12.5225C17.9157 12.447 18.4827 12.342 19.7629 11.8592C20.5993 11.5437 21.4161 11.2083 21.578 11.1136C21.7704 11.001 20.6314 10.9396 18.2829 10.936C14.7246 10.9305 14.6923 10.934 14.5409 11.3392ZM30.3124 11.0388C30.3124 11.0887 30.5899 11.5637 30.929 12.0943C31.5588 13.0794 32.248 13.6854 33.0076 13.9217C33.3913 14.0408 33.4207 14.0116 33.3018 13.6276C33.0867 12.9323 32.5375 11.9221 32.24 11.675C31.9409 11.4268 30.3124 10.8891 30.3124 11.0388ZM21.4185 12.4828C20.2704 12.9167 19.2629 13.299 19.1795 13.3323C19.0962 13.3655 19.1712 13.9218 19.3463 14.5683C19.7756 16.1536 19.7832 19.4945 19.3612 21.0836C19.1913 21.7229 19.0774 22.2707 19.1079 22.3013C19.338 22.5317 23.6826 24.0139 23.8921 23.9334C24.2179 23.8084 24.9074 22.2755 25.2477 20.9203C25.6137 19.4627 25.5746 16.0348 25.174 14.4675C24.8018 13.0106 24.1658 11.7644 23.7732 11.7225C23.6261 11.7067 22.5665 12.0488 21.4185 12.4828ZM4.52998 13.7676C4.43052 14.0292 4.22106 14.9855 4.06478 15.8925C3.83336 17.2344 3.81647 17.8484 3.97457 19.1892C4.2245 21.3108 4.64833 22.5995 5.05654 22.4798C5.22062 22.4317 6.17173 22.2569 7.17002 22.0915C8.16832 21.926 9.0147 21.7629 9.05082 21.7288C9.08694 21.6946 9.02577 21.1446 8.91468 20.5067C8.65404 19.0086 8.65658 16.5386 8.92031 15.2249C9.0343 14.6564 9.07386 14.1373 9.00798 14.0713C8.88528 13.9487 5.61449 13.3137 5.03275 13.2996C4.84798 13.295 4.63362 13.4946 4.52998 13.7676ZM32.5115 22.06C31.9231 22.3385 31.5303 22.7236 31.0048 23.5371C30.6093 24.1494 30.3808 24.6667 30.4897 24.703C30.5975 24.7389 31.0713 24.5767 31.5426 24.3428C32.2438 23.9946 32.4957 23.7272 32.9281 22.8718C33.2187 22.2969 33.4229 21.7943 33.3819 21.7549C33.3409 21.7155 32.9492 21.8528 32.5115 22.06ZM10.3464 23.2252C10.0969 23.2668 9.44342 23.4306 8.89436 23.589C7.91167 23.8726 7.90459 23.8795 8.44058 24.0313C9.03575 24.1999 12.6897 24.7346 13.2458 24.7346C13.5758 24.7346 13.5789 24.6973 13.3132 23.9172L13.0349 23.0999L11.9176 23.1246C11.303 23.1382 10.596 23.1834 10.3464 23.2252ZM14.2608 23.5086C14.6794 24.853 14.2911 24.7355 18.2829 24.727L21.8722 24.7191L20.7832 24.2638C18.8781 23.467 17.2579 23.0999 15.647 23.0999C14.1608 23.0999 14.136 23.1073 14.2608 23.5086Z" fill="#FF6F07"/>
</svg>
