<!-- <svg width="1310" height="6419" viewBox="0 0 1310 6419" fill="none" xmlns="http://www.w3.org/2000/svg">
<g opacity="0.15">
<path d="M622.5 0L1476 900V0H622.5Z" fill="#FE6F09"/>
<path d="M442 0L1478 1072V933.5L584.5 0H442Z" fill="#FE6F09"/>
</g>
<g opacity="0.15">
<path d="M855.5 2507L2 1607V2507H855.5Z" fill="#FE6F09"/>
<path d="M1036 2507L0 1435V1573.5L893.5 2507H1036Z" fill="#FE6F09"/>
<path d="M855.5 2507L2 3407V2507H855.5Z" fill="#FE6F09"/>
<path d="M1036 2507L0 3579V3440.5L893.5 2507H1036Z" fill="#FE6F09"/>
</g>
<g opacity="0.15">
<path d="M584.5 5347L1438 4447V5347H584.5Z" fill="#FE6F09"/>
<path d="M404 5347L1440 4275V4413.5L546.5 5347H404Z" fill="#FE6F09"/>
<path d="M584.5 5347L1438 6247V5347H584.5Z" fill="#FE6F09"/>
<path d="M404 5347L1440 6419V6280.5L546.5 5347H404Z" fill="#FE6F09"/>
</g>
</svg> -->

<!-- <svg width="1440" height="900" viewBox="0 0 1440 900" fill="none" xmlns="http://www.w3.org/2000/svg" xmlns:xlink="http://www.w3.org/1999/xlink">
<rect width="1440" height="900" transform="matrix(-1 0 0 1 1440 0)" fill="url(#pattern0_346_3)"/>
<path d="M586.5 900L1440 0V900H586.5Z" fill="#FE6F09"/>
<path d="M406 900L1259.5 0H1400L548.5 900H406Z" fill="#FE6F09"/>
<defs>
<pattern id="pattern0_346_3" patternContentUnits="objectBoundingBox" width="1" height="1">
<use xlink:href="#image0_346_3" transform="matrix(0.00135135 0 0 0.00216216 0 -0.032973)"/>
</pattern>
</defs>
</svg> -->

<!-- <svg width="1440" height="900" viewBox="0 0 1440 900" fill="none" xmlns="http://www.w3.org/2000/svg" xmlns:xlink="http://www.w3.org/1999/xlink">

<g transform="matrix(1 0 0 -1 0 900)">
  <rect width="1440" height="900" transform="matrix(-1 0 0 1 1440 0)" fill="url(#pattern0_346_3)"/>
  
  <path d="M586.5 900L1440 0V900H586.5Z" fill="#FE6F09"/>
  
  <path d="M406 900L1259.5 0H1400L548.5 900H406Z" fill="#FE6F09"/>
</g>

<defs>
  <pattern id="pattern0_346_3" patternContentUnits="objectBoundingBox" width="1" height="1">
    <use xlink:href="#image0_346_3" transform="matrix(0.00135135 0 0 0.00216216 0 -0.032973)"/>
  </pattern>
</defs>

</svg> -->


<!-- <svg width="1440" height="900" viewBox="0 0 1440 900" fill="none" xmlns="http://www.w3.org/2000/svg" xmlns:xlink="http://www.w3.org/1999/xlink"> -->
<svg preserveAspectRatio="xMidYMid slice" viewBox="0 0 1440 900" fill="none" xmlns="http://www.w3.org/2000/svg" xmlns:xlink="http://www.w3.org/1999/xlink">

<g transform="matrix(-1 0 0 1 1440 0)" opacity="0.15">
<rect width="1440" height="900" transform="matrix(-1 0 0 1 1440 0)" fill="url(#pattern0_346_3)"/>
<path d="M586.5 900L1440 0V900H586.5Z" fill="#FE6F09"/>
<path d="M406 900L1259.5 0H1400L548.5 900H406Z" fill="#FE6F09"/>
</g>
<defs>
<pattern id="pattern0_346_3" patternContentUnits="objectBoundingBox" width="1" height="1">
<use xlink:href="#image0_346_3" transform="matrix(0.00135135 0 0 0.00216216 0 -0.032973)"/>
</pattern>
</defs>
</svg>