<svg width="48" height="51" viewBox="0 0 48 51" fill="none" xmlns="http://www.w3.org/2000/svg">
<path d="M7.27148 35.8223L7.22754 0.830078H29.5752C38.9018 0.830132 46.4628 8.39118 46.4629 17.7178C46.4629 27.2583 38.7281 34.9922 29.1875 34.9922H26.5352C20.9442 34.9922 15.6572 37.5382 12.1709 41.9092L7.27148 48.0518V35.8223Z" stroke="#FE6F09" stroke-width="1.66088"/>
<path d="M6.44141 2.99976H29.1175C37.353 2.99976 44.0291 9.67588 44.0291 17.9113C44.0291 26.1467 37.353 32.8229 29.1175 32.8229H25.2353H22.0226C19.1433 32.8229 16.36 33.8587 14.1813 35.7411L12.8963 36.8513C12.336 37.3355 11.8957 37.9432 11.6102 38.6265C10.478 41.3366 6.44141 40.5273 6.44141 37.5903V32.8229V2.99976Z" fill="#FE6F09"/>
<path fill-rule="evenodd" clip-rule="evenodd" d="M20.9449 8.61485C21.0073 8.83971 21.1052 9.19898 21.1625 9.41349L21.2669 9.80345L16.1244 9.74878C13.1275 9.71699 10.4586 9.60129 9.72821 9.47143C7.85612 9.13886 5.68728 9.33429 3.59122 10.0243C1.03376 10.8662 0.847174 11.1139 0.261627 14.4431C-0.395253 18.1778 0.25182 23.7866 1.45631 24.801C1.73456 25.0351 2.83886 25.4787 3.96004 25.8065C5.83666 26.3554 6.09277 26.3867 7.92946 26.2917C9.00925 26.2357 12.4875 26.1425 15.659 26.0846L21.4255 25.9791L21.1151 26.63C20.9189 27.042 20.8685 27.3448 20.9776 27.4539C21.2391 27.7157 21.9976 27.2647 22.4164 26.5983C22.7645 26.0445 22.8295 26.0203 23.9596 26.0228C24.6085 26.0245 25.7919 26.094 26.5896 26.1778C29.0848 26.4391 31.669 25.8309 32.9891 24.6709C34.2727 23.543 35.0247 21.0354 35.0289 17.8685C35.0321 15.4306 34.7005 13.8086 33.8896 12.2971C33.2534 11.1112 32.6509 10.6195 31.0669 9.99344C29.9617 9.55643 28.0559 9.46271 24.5433 9.67249L22.8584 9.77312L22.4852 9.16901C22.0895 8.52839 21.6383 8.20618 21.1369 8.20618C20.9077 8.20618 20.8598 8.30807 20.9449 8.61485ZM11.7985 11.1424C10.9499 11.2195 9.72476 11.3935 9.07586 11.529L7.89606 11.7752L8.98511 12.1002C9.58409 12.2789 10.7316 12.4671 11.5349 12.5185L12.9957 12.612L13.2896 11.8635C13.4511 11.4518 13.5288 11.0896 13.4624 11.0587C13.3958 11.0277 12.647 11.0654 11.7985 11.1424ZM14.5409 11.3393C14.4569 11.5642 14.3275 11.9425 14.2534 12.1803L14.1187 12.6126L16.1803 12.5227C17.9157 12.4471 18.4827 12.3421 19.7629 11.8593C20.5993 11.5439 21.4161 11.2084 21.578 11.1137C21.7704 11.0011 20.6314 10.9397 18.2829 10.9361C14.7246 10.9307 14.6923 10.9341 14.5409 11.3393ZM30.3124 11.0389C30.3124 11.0889 30.5899 11.5638 30.929 12.0944C31.5588 13.0795 32.248 13.6855 33.0076 13.9218C33.3913 14.0409 33.4207 14.0117 33.3018 13.6277C33.0867 12.9324 32.5375 11.9222 32.24 11.6752C31.9409 11.4269 30.3124 10.8892 30.3124 11.0389ZM21.4185 12.4829C20.2704 12.9168 19.2629 13.2991 19.1795 13.3324C19.0962 13.3656 19.1712 13.922 19.3463 14.5684C19.7756 16.1537 19.7832 19.4946 19.3612 21.0837C19.1913 21.7231 19.0774 22.2709 19.1079 22.3014C19.338 22.5319 23.6826 24.014 23.8921 23.9335C24.2179 23.8086 24.9074 22.2756 25.2477 20.9204C25.6137 19.4628 25.5746 16.0349 25.174 14.4676C24.8018 13.0107 24.1658 11.7645 23.7732 11.7226C23.6261 11.7068 22.5665 12.049 21.4185 12.4829ZM4.52998 13.7678C4.43052 14.0293 4.22106 14.9856 4.06478 15.8927C3.83336 17.2346 3.81647 17.8485 3.97457 19.1893C4.2245 21.3109 4.64833 22.5996 5.05654 22.4799C5.22062 22.4318 6.17173 22.2571 7.17002 22.0916C8.16832 21.9261 9.0147 21.763 9.05082 21.7289C9.08694 21.6947 9.02577 21.1447 8.91468 20.5069C8.65404 19.0087 8.65658 16.5387 8.92031 15.225C9.0343 14.6565 9.07386 14.1374 9.00798 14.0714C8.88528 13.9488 5.61449 13.3139 5.03275 13.2997C4.84798 13.2951 4.63363 13.4948 4.52998 13.7678ZM32.5115 22.0602C31.9231 22.3386 31.5303 22.7237 31.0048 23.5372C30.6093 24.1495 30.3808 24.6668 30.4897 24.7031C30.5975 24.7391 31.0713 24.5769 31.5426 24.3429C32.2438 23.9947 32.4957 23.7274 32.9281 22.8719C33.2187 22.297 33.4229 21.7944 33.3819 21.755C33.3409 21.7156 32.9492 21.8529 32.5115 22.0602ZM10.3464 23.2253C10.0969 23.2669 9.44342 23.4308 8.89436 23.5892C7.91167 23.8727 7.90459 23.8796 8.44058 24.0314C9.03575 24.2 12.6897 24.7347 13.2458 24.7347C13.5758 24.7347 13.5789 24.6975 13.3132 23.9174L13.0349 23.1L11.9176 23.1247C11.303 23.1383 10.596 23.1836 10.3464 23.2253ZM14.2608 23.5087C14.6794 24.8531 14.2911 24.7356 18.2829 24.7271L21.8722 24.7193L20.7832 24.2639C18.8781 23.4671 17.2579 23.1 15.647 23.1C14.1608 23.1 14.136 23.1075 14.2608 23.5087Z" fill="white"/>
</svg>
