<svg width="170" height="42" viewBox="0 0 170 42" fill="none" xmlns="http://www.w3.org/2000/svg">
<path d="M23.9418 0.671875C31.4918 0.671891 37.6125 6.79274 37.6127 14.3428C37.6127 22.0661 31.3516 28.3271 23.6283 28.3271H21.4808C16.9548 28.3271 12.6751 30.3884 9.85291 33.9268L5.88611 38.8984V28.999L5.85095 0.671875H23.9418Z" stroke="#FE6F09" stroke-width="1.34452"/>
<path d="M5.21411 2.42809H23.571C30.2378 2.42809 35.6422 7.83257 35.6422 14.4993C35.6422 21.1661 30.2378 26.5706 23.571 26.5706H20.4282H17.8275C15.4966 26.5706 13.2435 27.4091 11.4797 28.933L10.4395 29.8317C9.98589 30.2237 9.62947 30.7156 9.39837 31.2688C8.48184 33.4627 5.21411 32.8076 5.21411 30.4299V26.5706V2.42809Z" fill="#FE6F09"/>
<path fill-rule="evenodd" clip-rule="evenodd" d="M16.9554 6.97382C17.0059 7.15585 17.0851 7.44669 17.1316 7.62034L17.2161 7.93603L13.0531 7.89177C10.627 7.86604 8.46648 7.77237 7.87521 7.66724C6.35972 7.39802 4.60399 7.55623 2.90718 8.11482C0.836857 8.79633 0.685808 8.99689 0.211793 11.6919C-0.319966 14.7152 0.203855 19.2557 1.17892 20.0769C1.40417 20.2664 2.29813 20.6255 3.20575 20.8909C4.72492 21.3352 4.93225 21.3605 6.41909 21.2836C7.29321 21.2383 10.1089 21.1629 12.6763 21.116L17.3445 21.0306L17.0932 21.5575C16.9344 21.891 16.8935 22.1361 16.9818 22.2245C17.1936 22.4364 17.8076 22.0713 18.1466 21.5318C18.4284 21.0835 18.481 21.064 19.3958 21.066C19.9211 21.0673 20.8792 21.1236 21.5249 21.1914C23.5449 21.403 25.6368 20.9106 26.7055 19.9716C27.7446 19.0585 28.3533 17.0286 28.3567 14.4648C28.3594 12.4913 28.0909 11.1783 27.4344 9.95468C26.9194 8.99468 26.4317 8.59666 25.1494 8.08982C24.2547 7.73606 22.7119 7.66019 19.8684 7.83001L18.5044 7.91147L18.2023 7.42243C17.882 6.90383 17.5167 6.64299 17.1108 6.64299C16.9253 6.64299 16.8865 6.72548 16.9554 6.97382ZM9.55116 9.01997C8.86424 9.08231 7.87242 9.22318 7.34713 9.33286L6.39205 9.53224L7.27366 9.79529C7.75855 9.93997 8.68747 10.0923 9.33781 10.1339L10.5204 10.2096L10.7582 9.6037C10.889 9.27037 10.9519 8.97718 10.8981 8.95219C10.8442 8.92704 10.2381 8.95763 9.55116 9.01997ZM11.7712 9.17936C11.7032 9.36139 11.5984 9.66766 11.5385 9.86013L11.4294 10.2101L13.0983 10.1373C14.5032 10.0761 14.9622 9.99114 15.9986 9.60032C16.6756 9.34492 17.3368 9.07334 17.4679 8.99674C17.6237 8.90558 16.7016 8.85588 14.8004 8.85294C11.9199 8.84853 11.8938 8.85132 11.7712 9.17936ZM24.5386 8.93616C24.5386 8.97659 24.7633 9.36109 25.0377 9.79058C25.5476 10.5881 26.1055 11.0786 26.7204 11.2699C27.0311 11.3664 27.0549 11.3427 26.9586 11.0319C26.7845 10.469 26.3399 9.65119 26.099 9.45123C25.8569 9.25023 24.5386 8.815 24.5386 8.93616ZM17.3387 10.1051C16.4094 10.4564 15.5937 10.7659 15.5263 10.7928C15.4589 10.8197 15.5195 11.2701 15.6613 11.7934C16.0088 13.0767 16.015 15.7813 15.6734 17.0677C15.5359 17.5852 15.4436 18.0287 15.4683 18.0534C15.6546 18.24 19.1716 19.4398 19.3412 19.3747C19.6049 19.2735 20.1631 18.0325 20.4386 16.9355C20.7349 15.7555 20.7033 12.9805 20.379 11.7118C20.0776 10.5324 19.5628 9.52357 19.2449 9.4896C19.1259 9.47681 18.2681 9.75383 17.3387 10.1051ZM3.66713 11.1452C3.58661 11.357 3.41705 12.1311 3.29054 12.8654C3.10319 13.9517 3.08953 14.4487 3.21751 15.5341C3.41984 17.2516 3.76293 18.2948 4.09339 18.1979C4.22622 18.159 4.99616 18.0175 5.8043 17.8836C6.61245 17.7496 7.29761 17.6176 7.32685 17.5899C7.35609 17.5623 7.30657 17.1171 7.21665 16.6007C7.00565 15.3879 7.00771 13.3884 7.22121 12.3249C7.31348 11.8647 7.34551 11.4444 7.29217 11.3911C7.19284 11.2918 4.54506 10.7778 4.07413 10.7663C3.92455 10.7626 3.75103 10.9242 3.66713 11.1452ZM26.3189 17.8581C25.8425 18.0835 25.5245 18.3953 25.0992 19.0538C24.779 19.5495 24.594 19.9682 24.6821 19.9976C24.7694 20.0268 25.1529 19.8955 25.5345 19.7061C26.1021 19.4242 26.3061 19.2078 26.6561 18.5152C26.8913 18.0499 27.0566 17.643 27.0234 17.6111C26.9902 17.5792 26.6731 17.6904 26.3189 17.8581ZM8.37568 18.8014C8.17364 18.835 7.64467 18.9677 7.20019 19.0959C6.40468 19.3254 6.39895 19.331 6.83285 19.4539C7.31466 19.5904 10.2726 20.0232 10.7228 20.0232C10.99 20.0232 10.9924 19.9931 10.7773 19.3616L10.5521 18.6999L9.64755 18.7199C9.15003 18.7309 8.57771 18.7675 8.37568 18.8014ZM11.5445 19.0307C11.8833 20.1191 11.569 20.024 14.8004 20.0171L17.7061 20.0107L16.8245 19.6421C15.2822 18.9971 13.9707 18.6999 12.6666 18.6999C11.4635 18.6999 11.4434 18.7059 11.5445 19.0307Z" fill="white"/>
<path fill-rule="evenodd" clip-rule="evenodd" d="M158.999 11.6423C155.69 12.5395 153.347 15.1793 152.73 18.7043C152.218 21.6285 153.24 24.8231 155.316 26.7847C157.206 28.5712 159.402 29.3215 162.115 29.1078C166.553 28.7584 169.71 25.4685 169.979 20.912C170.147 18.0673 169.327 15.6599 167.596 13.9151C165.388 11.6893 162.065 10.8109 158.999 11.6423ZM50.604 11.8119L50.1905 12.1151V20.4501V28.7849L50.6046 28.8909C50.8325 28.9494 51.6802 28.9721 52.4885 28.9415L53.9583 28.8858L54.0096 26.5182L54.0609 24.1507L56.9504 24.0571C60.1294 23.954 61.1991 23.6805 62.6665 22.5955C65.3432 20.6161 65.5928 15.972 63.1562 13.4845C61.5303 11.825 60.8574 11.6567 55.5206 11.5764C51.5969 11.5173 50.9645 11.5477 50.604 11.8119ZM71.7124 11.8728C71.19 12.8693 64.5268 28.4832 64.5268 28.711C64.5268 28.9269 64.901 28.9796 66.4315 28.9796H68.3364L68.8049 27.9008C69.0626 27.3074 69.398 26.5117 69.5502 26.1323C69.7974 25.516 69.9169 25.4287 70.6723 25.313C71.1371 25.2419 72.2397 25.2329 73.1225 25.2929C74.0053 25.3531 75.438 25.4051 76.3062 25.4087L77.8849 25.4149L78.6111 27.1503L79.3373 28.8858L81.2438 28.9397C82.2924 28.9693 83.2147 28.9271 83.2934 28.8458C83.372 28.7646 83.1599 28.065 82.8219 27.291C78.607 17.6382 76.2618 12.3595 76.0221 11.986C75.7438 11.5526 75.6392 11.531 73.8108 11.531C72.1423 11.531 71.8682 11.5757 71.7124 11.8728ZM85.3401 11.6869C85.1582 11.8047 85.1187 13.6663 85.1563 20.3613L85.2041 28.8858H87.0421H88.8801L88.9316 26.4937L88.983 24.1015H90.8032H92.6232L94.2242 26.5406L95.8251 28.9796H97.8206C99.3647 28.9796 99.8161 28.9228 99.8161 28.7286C99.8161 28.5905 99.0717 27.3665 98.1619 26.0085C97.2521 24.6505 96.5078 23.457 96.5078 23.3563C96.5078 23.2555 96.7395 23.0507 97.0228 22.9011C97.8903 22.4433 99.0083 21.0441 99.353 19.9853C99.8536 18.4463 99.6877 16.0618 98.9887 14.7519C98.157 13.1939 96.7083 12.1755 94.7067 11.7419C93.5964 11.5016 85.6978 11.455 85.3401 11.6869ZM102.66 11.7588C102.61 11.8914 102.591 15.7993 102.617 20.4429L102.665 28.8858H104.503H106.341L106.433 26.716L106.525 24.5462L107.576 23.3426C108.429 22.3664 108.672 22.184 108.863 22.3779C108.992 22.5094 110.173 24.0274 111.487 25.7513L113.877 28.8858L115.975 28.9391C117.129 28.9686 118.146 28.9179 118.235 28.8269C118.329 28.731 118.1 28.2734 117.691 27.7415C117.303 27.2359 115.72 25.1135 114.174 23.0253L111.364 19.2285L113.102 17.3029C117.001 12.9834 117.987 11.8288 117.899 11.6835C117.848 11.5997 116.903 11.531 115.799 11.531C113.421 11.531 114.096 11.0408 109.627 16.0166L106.525 19.4703L106.433 15.5476L106.341 11.6248L104.546 11.5712C103.213 11.5312 102.727 11.5794 102.66 11.7588ZM120.585 20.2401V28.9796H121.596H122.607V26.2591V23.5387L124.675 23.5372C128.866 23.5343 130.677 23.1058 132.119 21.7758C133.563 20.4441 134.18 17.7733 133.552 15.5691C133.303 14.6946 133.032 14.2641 132.197 13.4181C130.6 11.7993 130.057 11.6627 124.859 11.5738L120.585 11.5008V20.2401ZM136.943 20.2405V28.9796H138.046H139.149V26.2687V23.558L141.842 23.5013L144.536 23.4448L146.348 26.2122L148.161 28.9796H149.364C150.274 28.9796 150.534 28.9226 150.434 28.7451C150.362 28.6162 149.544 27.3708 148.618 25.9777C147.691 24.5846 146.875 23.343 146.803 23.2184C146.722 23.0777 146.883 22.8807 147.228 22.6989C148.168 22.2024 149.075 21.2713 149.591 20.2722C150.031 19.4204 150.085 19.1144 150.085 17.441C150.085 15.7119 150.042 15.486 149.54 14.5599C148.88 13.344 148.031 12.598 146.685 12.0503C145.765 11.6764 145.278 11.6329 141.309 11.5702L136.943 11.5012V20.2405ZM122.745 13.5126C122.577 13.6892 122.56 20.0621 122.726 20.9069L122.844 21.5116L125.896 21.4401C128.564 21.3777 129.041 21.3189 129.683 20.9728C131.015 20.2555 131.594 19.1896 131.601 17.441C131.609 15.7179 130.678 14.3894 129.04 13.7843C128.319 13.5179 122.96 13.2867 122.745 13.5126ZM139.287 13.5113C139.211 13.5916 139.149 15.4162 139.149 17.5662V21.4748L141.86 21.4737C143.351 21.4732 144.87 21.388 145.236 21.2842C146.282 20.9874 147.108 20.3242 147.569 19.4095C147.922 18.7105 147.984 18.3371 147.934 17.2202C147.882 16.053 147.8 15.7783 147.316 15.1564C147.009 14.762 146.359 14.2352 145.871 13.9856C145.081 13.5817 144.682 13.5231 142.205 13.4487C140.676 13.4029 139.363 13.4308 139.287 13.5113ZM159.198 13.7155C155.801 14.9292 154.011 18.715 155.116 22.3475C156.069 25.482 158.634 27.273 161.865 27.0614C164.262 26.9044 166.167 25.5349 167.241 23.1962C167.668 22.2658 167.73 21.8949 167.73 20.2553C167.73 18.5802 167.673 18.2527 167.196 17.1988C166.525 15.7164 165.102 14.3393 163.679 13.7958C162.447 13.3252 160.393 13.2884 159.198 13.7155ZM54.1131 15.0106C54.0727 15.1185 54.0627 16.4271 54.0909 17.9187L54.1421 20.6306H56.5315C58.6009 20.6306 59.0071 20.5795 59.5642 20.2489C60.4876 19.7011 60.8865 18.8135 60.8034 17.4905C60.7341 16.3866 60.3522 15.7356 59.4723 15.222C58.9805 14.9348 54.2118 14.7468 54.1131 15.0106ZM89.0845 14.856C89.0225 14.919 88.972 16.2738 88.972 17.8664V20.7621L91.3154 20.6962C93.8827 20.6244 94.5214 20.4082 95.2938 19.3504C95.8328 18.6121 95.8369 16.8423 95.3011 16.0945C94.6688 15.2119 93.8855 14.959 91.4279 14.8449C90.2009 14.7879 89.1462 14.7928 89.0845 14.856ZM72.4956 18.8574C71.7774 20.6105 71.2417 22.0769 71.3047 22.1159C71.4874 22.2291 76.4737 22.2542 76.4737 22.142C76.4737 21.9824 74.0389 15.9558 73.9134 15.8048C73.8516 15.7305 73.2135 17.1041 72.4956 18.8574Z" fill="#FE6F09"/>
</svg>
